<mxfile host="app.diagrams.net" agent="Mozilla/5.0 (Macintosh; Intel Mac OS X 10_15_7) AppleWebKit/537.36 (KHTML, like Gecko) Chrome/134.0.0.0 Safari/537.36" version="26.1.3">
  <diagram name="第 1 页" id="TNgU47--TbhRfyIrfIDC">
    <mxGraphModel dx="915" dy="448" grid="1" gridSize="10" guides="1" tooltips="1" connect="1" arrows="1" fold="1" page="1" pageScale="1" pageWidth="827" pageHeight="1169" math="0" shadow="0">
      <root>
        <mxCell id="0" />
        <mxCell id="1" parent="0" />
        <mxCell id="bLfp6R4X8cnuIYJNa31i-4" value="MacOS" style="sketch=0;verticalLabelPosition=bottom;sketch=0;aspect=fixed;html=1;verticalAlign=top;strokeColor=none;fillColor=#000000;align=center;outlineConnect=0;pointerEvents=1;shape=mxgraph.citrix2.citrix_vda_for_macos;" parent="1" vertex="1">
          <mxGeometry x="240" y="175" width="50.73" height="70" as="geometry" />
        </mxCell>
        <mxCell id="bLfp6R4X8cnuIYJNa31i-13" value="VPS" style="points=[[0,0],[0.25,0],[0.5,0],[0.75,0],[1,0],[1,0.25],[1,0.5],[1,0.75],[1,1],[0.75,1],[0.5,1],[0.25,1],[0,1],[0,0.75],[0,0.5],[0,0.25]];outlineConnect=0;gradientColor=none;html=1;whiteSpace=wrap;fontSize=12;fontStyle=0;container=0;pointerEvents=0;collapsible=0;recursiveResize=0;shape=mxgraph.aws4.group;grIcon=mxgraph.aws4.group_on_premise;strokeColor=#004C99;fillColor=none;verticalAlign=bottom;align=center;spacingLeft=30;fontColor=#5A6C86;direction=west;" parent="1" vertex="1">
          <mxGeometry x="320" y="255" width="130" height="106" as="geometry" />
        </mxCell>
        <mxCell id="bLfp6R4X8cnuIYJNa31i-17" value="&lt;font color=&quot;#ffffff&quot;&gt;&lt;span style=&quot;font-size: 23px;&quot;&gt;Xray&lt;/span&gt;&lt;/font&gt;" style="rounded=0;whiteSpace=wrap;html=1;fillColor=#000000;strokeColor=none;" parent="1" vertex="1">
          <mxGeometry x="440" y="190" width="80" height="40" as="geometry" />
        </mxCell>
        <mxCell id="bLfp6R4X8cnuIYJNa31i-24" value="" style="endArrow=none;dashed=1;html=1;rounded=0;entryX=1;entryY=0.5;entryDx=0;entryDy=0;exitX=0.5;exitY=0;exitDx=0;exitDy=0;" parent="1" source="bLfp6R4X8cnuIYJNa31i-5" target="bLfp6R4X8cnuIYJNa31i-17" edge="1">
          <mxGeometry width="50" height="50" relative="1" as="geometry">
            <mxPoint x="400" y="290" as="sourcePoint" />
            <mxPoint x="450" y="240" as="targetPoint" />
            <Array as="points">
              <mxPoint x="560" y="210" />
            </Array>
          </mxGeometry>
        </mxCell>
        <mxCell id="bLfp6R4X8cnuIYJNa31i-30" value="Proxy" style="text;html=1;align=center;verticalAlign=middle;whiteSpace=wrap;rounded=0;fillColor=#eeeeee;strokeColor=#36393d;" parent="1" vertex="1">
          <mxGeometry x="355" y="265" width="60" height="30" as="geometry" />
        </mxCell>
        <mxCell id="bLfp6R4X8cnuIYJNa31i-31" value="" style="group" parent="1" vertex="1" connectable="0">
          <mxGeometry x="520" y="280" width="100" height="91" as="geometry" />
        </mxCell>
        <mxCell id="Vk3XE0kuF4AS46GYuzE2-5" value="" style="group" parent="bLfp6R4X8cnuIYJNa31i-31" vertex="1" connectable="0">
          <mxGeometry x="-10" width="100" height="91" as="geometry" />
        </mxCell>
        <mxCell id="bLfp6R4X8cnuIYJNa31i-1" value="Controlled Windows" style="sketch=0;outlineConnect=0;strokeColor=#36393d;fillColor=#333333;dashed=0;verticalLabelPosition=bottom;verticalAlign=top;align=center;html=1;fontSize=12;fontStyle=0;aspect=fixed;shape=mxgraph.aws4.illustration_desktop;pointerEvents=1;" parent="Vk3XE0kuF4AS46GYuzE2-5" vertex="1">
          <mxGeometry width="100" height="91" as="geometry" />
        </mxCell>
        <mxCell id="bLfp6R4X8cnuIYJNa31i-5" value="Bridge" style="text;html=1;align=center;verticalAlign=middle;whiteSpace=wrap;rounded=0;fillColor=#eeeeee;strokeColor=#36393d;" parent="Vk3XE0kuF4AS46GYuzE2-5" vertex="1">
          <mxGeometry x="20" y="20" width="60" height="30" as="geometry" />
        </mxCell>
        <mxCell id="bLfp6R4X8cnuIYJNa31i-34" value="" style="endArrow=classic;html=1;rounded=0;strokeColor=#66CC00;endSize=3;startFill=1;startArrow=classic;startSize=3;endFill=1;" parent="1" source="bLfp6R4X8cnuIYJNa31i-4" edge="1">
          <mxGeometry width="50" height="50" relative="1" as="geometry">
            <mxPoint x="300" y="220" as="sourcePoint" />
            <mxPoint x="365" y="310" as="targetPoint" />
            <Array as="points">
              <mxPoint x="310" y="210" />
              <mxPoint x="310" y="280" />
              <mxPoint x="365" y="280" />
            </Array>
          </mxGeometry>
        </mxCell>
        <mxCell id="bLfp6R4X8cnuIYJNa31i-35" value="" style="endArrow=classic;html=1;rounded=0;strokeColor=#FF0000;" parent="1" edge="1">
          <mxGeometry width="50" height="50" relative="1" as="geometry">
            <mxPoint x="240" y="270" as="sourcePoint" />
            <mxPoint x="270" y="300" as="targetPoint" />
          </mxGeometry>
        </mxCell>
        <mxCell id="bLfp6R4X8cnuIYJNa31i-37" value="&lt;span&gt;Firewall&lt;/span&gt;" style="text;html=1;align=center;verticalAlign=middle;whiteSpace=wrap;rounded=0;fontSize=11;" parent="1" vertex="1">
          <mxGeometry x="255" y="345" width="80" height="10" as="geometry" />
        </mxCell>
        <mxCell id="bLfp6R4X8cnuIYJNa31i-46" value="" style="endArrow=classic;html=1;rounded=0;strokeColor=#FF0000;" parent="1" edge="1">
          <mxGeometry width="50" height="50" relative="1" as="geometry">
            <mxPoint x="220" y="320" as="sourcePoint" />
            <mxPoint x="270" y="320.5" as="targetPoint" />
          </mxGeometry>
        </mxCell>
        <mxCell id="bLfp6R4X8cnuIYJNa31i-47" value="" style="endArrow=classic;html=1;rounded=0;strokeColor=#FF0000;" parent="1" edge="1">
          <mxGeometry width="50" height="50" relative="1" as="geometry">
            <mxPoint x="230" y="370" as="sourcePoint" />
            <mxPoint x="270" y="340" as="targetPoint" />
          </mxGeometry>
        </mxCell>
        <mxCell id="bLfp6R4X8cnuIYJNa31i-9" value="Portal" style="text;html=1;align=center;verticalAlign=middle;whiteSpace=wrap;rounded=0;fillColor=#eeeeee;strokeColor=#36393d;" parent="1" vertex="1">
          <mxGeometry x="355" y="310.5" width="60" height="30" as="geometry" />
        </mxCell>
        <mxCell id="Vk3XE0kuF4AS46GYuzE2-3" value="" style="endArrow=none;dashed=1;html=1;rounded=0;exitX=0.5;exitY=0.3;exitDx=0;exitDy=0;entryX=0;entryY=0.25;entryDx=0;entryDy=0;exitPerimeter=0;" parent="1" source="bLfp6R4X8cnuIYJNa31i-29" target="bLfp6R4X8cnuIYJNa31i-17" edge="1">
          <mxGeometry width="50" height="50" relative="1" as="geometry">
            <mxPoint x="320" y="280" as="sourcePoint" />
            <mxPoint x="370" y="230" as="targetPoint" />
            <Array as="points">
              <mxPoint x="295" y="250" />
              <mxPoint x="340" y="250" />
              <mxPoint x="340" y="200" />
            </Array>
          </mxGeometry>
        </mxCell>
        <mxCell id="bLfp6R4X8cnuIYJNa31i-29" value="" style="image;perimeter=ellipsePerimeter;html=1;align=center;shadow=0;dashed=1;spacingTop=3;image=img/lib/active_directory/firewall.svg;aspect=fixed;labelBorderColor=none;imageBorder=none;dashPattern=12 12;labelPosition=center;verticalLabelPosition=bottom;verticalAlign=top;horizontal=1;" parent="1" vertex="1">
          <mxGeometry x="280" y="295" width="30" height="50" as="geometry" />
        </mxCell>
        <mxCell id="I66tSIFBlILUy5itwb84-3" value="" style="endArrow=classic;html=1;rounded=0;strokeColor=#66CC00;endSize=3;exitX=0;exitY=0.5;exitDx=0;exitDy=0;entryX=0.817;entryY=0.001;entryDx=0;entryDy=0;entryPerimeter=0;startArrow=classic;startFill=1;startSize=3;" edge="1" parent="1" source="bLfp6R4X8cnuIYJNa31i-5" target="bLfp6R4X8cnuIYJNa31i-9">
          <mxGeometry width="50" height="50" relative="1" as="geometry">
            <mxPoint x="460" y="460" as="sourcePoint" />
            <mxPoint x="500" y="460" as="targetPoint" />
            <Array as="points">
              <mxPoint x="480" y="315" />
              <mxPoint x="480" y="280" />
              <mxPoint x="404" y="280" />
            </Array>
          </mxGeometry>
        </mxCell>
        <mxCell id="I66tSIFBlILUy5itwb84-5" value="" style="endArrow=none;dashed=1;html=1;rounded=0;entryX=0;entryY=0.5;entryDx=0;entryDy=0;exitX=0.515;exitY=-0.104;exitDx=0;exitDy=0;exitPerimeter=0;" edge="1" parent="1" source="bLfp6R4X8cnuIYJNa31i-30" target="bLfp6R4X8cnuIYJNa31i-17">
          <mxGeometry width="50" height="50" relative="1" as="geometry">
            <mxPoint x="320" y="320" as="sourcePoint" />
            <mxPoint x="370" y="270" as="targetPoint" />
            <Array as="points">
              <mxPoint x="386" y="210" />
            </Array>
          </mxGeometry>
        </mxCell>
        <mxCell id="I66tSIFBlILUy5itwb84-6" value="" style="endArrow=none;dashed=1;html=1;rounded=0;entryX=0;entryY=0.75;entryDx=0;entryDy=0;exitX=1.002;exitY=0.321;exitDx=0;exitDy=0;exitPerimeter=0;" edge="1" parent="1" source="bLfp6R4X8cnuIYJNa31i-9" target="bLfp6R4X8cnuIYJNa31i-17">
          <mxGeometry width="50" height="50" relative="1" as="geometry">
            <mxPoint x="320" y="320" as="sourcePoint" />
            <mxPoint x="370" y="270" as="targetPoint" />
            <Array as="points">
              <mxPoint x="430" y="320" />
              <mxPoint x="430" y="220" />
            </Array>
          </mxGeometry>
        </mxCell>
      </root>
    </mxGraphModel>
  </diagram>
</mxfile>
